<svg xmlns="http://www.w3.org/2000/svg" xmlns:xlink="http://www.w3.org/1999/xlink" viewBox="0 0 252.86 90.34"><defs><style>.cls-1{fill:url(#linear-gradient);}.cls-2{fill:#fff;}</style><linearGradient id="linear-gradient" x1="33.13" y1="-0.44" x2="33.13" y2="90.23" gradientUnits="userSpaceOnUse"><stop offset="0" stop-color="#42d79f"/><stop offset="1" stop-color="#27c8ca"/></linearGradient></defs><title>Ресурс 3</title><g id="Слой_2" data-name="Слой 2"><g id="Layer_1" data-name="Layer 1"><path class="cls-1" d="M66.27,57.21A33.16,33.16,0,0,0,48.37,27.8l-.16-.15A31.21,31.21,0,0,1,35.59,2.47h0A2.46,2.46,0,0,0,33.13,0h0a2.46,2.46,0,0,0-2.46,2.46A31.21,31.21,0,0,1,18.05,27.65l-.16.15A33.12,33.12,0,0,0,32,90.31l1.14,0,1.14,0A33.17,33.17,0,0,0,66.27,57.21Zm-4.92,0a28.1,28.1,0,0,1-7.67,19.3,22.14,22.14,0,0,0-5.44-24.59,17.82,17.82,0,0,0,.65-18.11A28.21,28.21,0,0,1,61.35,57.21ZM15.86,68.15a17.21,17.21,0,0,1,5.36-12.48,17.87,17.87,0,0,0,8.05,4.14s0,.09,0,.14l1.36,2.71L32,65.37a1.18,1.18,0,0,0,2.18,0l1.36-2.71L36.94,60s0-.09,0-.14A17.85,17.85,0,0,0,45,55.67,17.26,17.26,0,1,1,15.86,68.15Zm4.28-25.82a13,13,0,1,1,13,13A13,13,0,0,1,20.14,42.33Zm13-26.67A35.79,35.79,0,0,0,38,24.44a33.19,33.19,0,0,0-9.83,0A35.78,35.78,0,0,0,33.13,15.66ZM4.92,57.21A28.21,28.21,0,0,1,17.38,33.81,17.82,17.82,0,0,0,18,51.92a22.14,22.14,0,0,0-5.44,24.59A28.1,28.1,0,0,1,4.92,57.21Z"/><path class="cls-2" d="M95.14,32.47,86.56,51.2a2.3,2.3,0,0,1-2.09,1.44,2.53,2.53,0,0,1-2.61-2.35,2.87,2.87,0,0,1,.26-1.11L84,45,78,32.51A2.41,2.41,0,0,1,80.3,29a2.28,2.28,0,0,1,2.09,1.44l4.31,8.78,4-8.78A2.3,2.3,0,0,1,92.86,29a2.49,2.49,0,0,1,2.54,2.35A2.88,2.88,0,0,1,95.14,32.47Z"/><path class="cls-2" d="M112.62,52.83c-4.47,0-7.6-3.23-8.29-7.37h-1.86V50a2.36,2.36,0,1,1-4.7,0V37.5a2.36,2.36,0,1,1,4.7,0v3.85h2a8.5,8.5,0,0,1,8.12-6.66c5,0,8.42,4.34,8.42,9.1S117.68,52.83,112.62,52.83Zm0-13.83c-2.58,0-3.72,2.54-3.72,4.8s1.17,4.73,3.72,4.73,3.72-2.48,3.72-4.73S115.2,39,112.62,39Z"/><path class="cls-2" d="M127.43,39.2h-3.29a1.9,1.9,0,0,1-2.06-2.05,2,2,0,0,1,2.06-2.06h11.29a2.06,2.06,0,1,1,0,4.11h-3.29V50a2.36,2.36,0,1,1-4.7,0Z"/><path class="cls-2" d="M153.12,52.64A2.37,2.37,0,0,1,150.78,50V45.46h-6.07V50a2.36,2.36,0,1,1-4.7,0V37.5a2.36,2.36,0,1,1,4.7,0v3.85h6.07V37.5a2.36,2.36,0,1,1,4.7,0V50A2.37,2.37,0,0,1,153.12,52.64Z"/><path class="cls-2" d="M175.3,43.8c0,4.89-3.36,9-8.42,9s-8.42-4.14-8.42-9,3.46-9.1,8.42-9.1S175.3,39,175.3,43.8Zm-12.14,0c0,2.25,1.18,4.73,3.72,4.73S170.6,46,170.6,43.8s-1.14-4.8-3.72-4.8S163.16,41.54,163.16,43.8Z"/><path class="cls-2" d="M182.08,45.33c.33,2.32,2.25,3.39,4.44,3.39,2.41,0,4.08-1.89,5.32-1.89a2.08,2.08,0,0,1,1.92,2c0,2-4.18,4-7.67,4-5.29,0-8.81-3.85-8.81-9,0-4.76,3.46-9.1,8.42-9.1s8.45,4.63,8.45,8.55c0,1.4-.62,2.09-2.06,2.09Zm7.37-3.13a3.72,3.72,0,0,0-3.75-3.59A3.78,3.78,0,0,0,182,42.2Z"/><path class="cls-2" d="M79.42,61.43A2.45,2.45,0,0,1,82,58.89h8.35a2.25,2.25,0,0,1,0,4.5h-6V79.77a2.45,2.45,0,1,1-4.89,0Z"/><path class="cls-2" d="M106.89,82.31a2.37,2.37,0,0,1-2.35-2.61V75.13H98.47V79.7a2.36,2.36,0,1,1-4.7,0V67.17a2.36,2.36,0,1,1,4.7,0V71h6.07V67.17a2.36,2.36,0,1,1,4.7,0V79.7A2.37,2.37,0,0,1,106.89,82.31Z"/><path class="cls-2" d="M116.7,75c.33,2.32,2.25,3.39,4.44,3.39,2.41,0,4.08-1.89,5.32-1.89a2.09,2.09,0,0,1,1.92,2c0,2-4.18,4-7.67,4-5.28,0-8.81-3.85-8.81-9,0-4.76,3.46-9.1,8.42-9.1s8.45,4.63,8.45,8.55c0,1.4-.62,2.09-2.06,2.09Zm.06-16.51a2.35,2.35,0,1,1-2.35,2.35A2.34,2.34,0,0,1,116.77,58.5Zm7.31,13.38a3.72,3.72,0,0,0-3.75-3.59,3.78,3.78,0,0,0-3.72,3.59Zm-.13-13.38a2.35,2.35,0,1,1-2.35,2.35A2.34,2.34,0,0,1,123.94,58.5Z"/><path class="cls-2" d="M137.44,82.51c-3.33,0-6.69-1.47-6.69-3.59a2.21,2.21,0,0,1,2-2.09c1.83,0,2.12,1.57,4.34,1.57,1.21,0,2.05-.52,2.05-1.57,0-3.26-4.21-.91-4.21-3.82,0-2.61,3.52-.95,3.52-3.39,0-.52-.33-1.14-1.43-1.14-1.53,0-2.87,1.37-3.75,1.37a2,2,0,0,1-1.93-2.09c0-2.32,3.75-3.39,6.07-3.39,3.72,0,5.42,2.25,5.42,4.54a4.06,4.06,0,0,1-2.12,3.75,4.61,4.61,0,0,1,3,4.4C143.74,80,141.49,82.51,137.44,82.51Z"/><path class="cls-2" d="M162.78,87.07a2.37,2.37,0,0,1-2.35-2.61V82.12h-10v2.35a2.36,2.36,0,1,1-4.7,0V80.61A2.37,2.37,0,0,1,148,78h.26a38.91,38.91,0,0,0,1.17-10.64,2.3,2.3,0,0,1,2.35-2.61h8.35a2.37,2.37,0,0,1,2.35,2.61V78h.26a2.37,2.37,0,0,1,2.35,2.61v3.85A2.37,2.37,0,0,1,162.78,87.07Zm-4.7-18.53h-4a42.79,42.79,0,0,1-1.21,9.72h5.22Z"/><path class="cls-2" d="M167.41,79.5V67.17a2.36,2.36,0,1,1,4.7,0V71h3.33c3.65,0,6.3,1.73,6.3,5.51,0,3.52-2.38,5.58-5.84,5.58h-6.13A2.37,2.37,0,0,1,167.41,79.5Zm4.7-1.27h3.1A1.7,1.7,0,0,0,177,76.47c0-.88-.69-1.57-2-1.57h-2.9ZM184,67.17a2.36,2.36,0,1,1,4.7,0V79.7a2.36,2.36,0,1,1-4.7,0Z"/><path class="cls-2" d="M192.29,79.5V67.17a2.36,2.36,0,1,1,4.7,0V78h4.76V67.17a2.36,2.36,0,1,1,4.7,0V78h4.76V67.17a2.36,2.36,0,1,1,4.7,0V79.5a2.37,2.37,0,0,1-2.35,2.61H194.64A2.37,2.37,0,0,1,192.29,79.5Z"/><path class="cls-2" d="M219.39,67.17a2.36,2.36,0,1,1,4.7,0v4.31l5.15-5.91a3,3,0,0,1,2.12-1,2.09,2.09,0,0,1,2,2.12,2.74,2.74,0,0,1-.91,1.86L228.07,73l5.71,5.51a2.15,2.15,0,0,1,.59,1.57,2.2,2.2,0,0,1-2.22,2.22c-.85,0-1.54-.68-2.25-1.43l-5.74-6.1h-.06V79.7a2.36,2.36,0,1,1-4.7,0Z"/><path class="cls-2" d="M252.86,73.47c0,4.89-3.36,9-8.42,9s-8.42-4.14-8.42-9,3.46-9.1,8.42-9.1S252.86,68.71,252.86,73.47Zm-12.14,0c0,2.25,1.18,4.73,3.72,4.73s3.72-2.48,3.72-4.73-1.14-4.8-3.72-4.8S240.72,71.22,240.72,73.47Z"/></g></g></svg>