<svg xmlns="http://www.w3.org/2000/svg" xmlns:xlink="http://www.w3.org/1999/xlink" viewBox="0 0 77.06 70.81"><defs><style>.cls-1{fill:url(#linear-gradient);}.cls-2{fill:url(#linear-gradient-2);}.cls-3{fill:url(#linear-gradient-3);}.cls-4{fill:url(#linear-gradient-4);}.cls-5{fill:url(#linear-gradient-5);}.cls-6{fill:url(#linear-gradient-6);}.cls-7{fill:url(#linear-gradient-7);}.cls-8{fill:url(#linear-gradient-8);}.cls-9{fill:url(#linear-gradient-9);}.cls-10{fill:url(#linear-gradient-10);}.cls-11{fill:url(#linear-gradient-11);}.cls-12{fill:url(#linear-gradient-12);}.cls-13{fill:url(#linear-gradient-13);}</style><linearGradient id="linear-gradient" x1="-1.61" y1="57.83" x2="78.03" y2="57.83" gradientUnits="userSpaceOnUse"><stop offset="0" stop-color="#42d79f"/><stop offset="1" stop-color="#27c8ca"/></linearGradient><linearGradient id="linear-gradient-2" x1="-1.61" y1="46.53" x2="78.03" y2="46.53" xlink:href="#linear-gradient"/><linearGradient id="linear-gradient-3" x1="-1.6" y1="20.99" x2="78.02" y2="20.99" xlink:href="#linear-gradient"/><linearGradient id="linear-gradient-4" x1="-1.6" y1="16.03" x2="78.02" y2="16.03" xlink:href="#linear-gradient"/><linearGradient id="linear-gradient-5" x1="-1.6" y1="66.72" x2="78.03" y2="66.72" xlink:href="#linear-gradient"/><linearGradient id="linear-gradient-6" x1="-1.6" y1="55.43" x2="78.03" y2="55.43" xlink:href="#linear-gradient"/><linearGradient id="linear-gradient-7" x1="-1.6" y1="29.89" x2="78.03" y2="29.89" xlink:href="#linear-gradient"/><linearGradient id="linear-gradient-8" x1="-1.6" y1="24.93" x2="78.03" y2="24.93" xlink:href="#linear-gradient"/><linearGradient id="linear-gradient-9" x1="-1.6" y1="24.45" x2="78.03" y2="24.45" xlink:href="#linear-gradient"/><linearGradient id="linear-gradient-10" x1="-1.6" y1="32.45" x2="78.02" y2="32.45" xlink:href="#linear-gradient"/><linearGradient id="linear-gradient-11" x1="-1.6" y1="22.78" x2="78.03" y2="22.78" xlink:href="#linear-gradient"/><linearGradient id="linear-gradient-12" x1="-1.6" y1="38.12" x2="78.02" y2="38.12" xlink:href="#linear-gradient"/><linearGradient id="linear-gradient-13" x1="-1.6" y1="32.45" x2="78.03" y2="32.45" xlink:href="#linear-gradient"/></defs><title>Ресурс 7</title><g id="Слой_2" data-name="Слой 2"><g id="Layer_1" data-name="Layer 1"><path class="cls-1" d="M61.9,61.92a1.5,1.5,0,0,1-.53-2.9L75,53.83a1.5,1.5,0,0,1,1.06,2.8L62.43,61.82A1.5,1.5,0,0,1,61.9,61.92Z"/><path class="cls-2" d="M66.94,54.61a1.5,1.5,0,0,1-1.4-1l-5-13.15a1.5,1.5,0,1,1,2.8-1.06l5,13.15a1.5,1.5,0,0,1-1.4,2Z"/><path class="cls-3" d="M59,42h0c-8.34,0-18.69-9.71-23-31.42a1.5,1.5,0,0,1,.94-1.69L60.06.1a1.5,1.5,0,0,1,1.83.65C69.39,13.57,72,25.67,69.09,34c-1.29,3.64-3.63,6.27-6.61,7.4A9.84,9.84,0,0,1,59,42ZM39.2,11.22C43.28,30.28,52.25,39,59,39h0a6.84,6.84,0,0,0,2.43-.43A8.78,8.78,0,0,0,66.26,33c1.22-3.45,3-13.14-6.33-29.6Z"/><path class="cls-4" d="M66.76,17.53H44.23a1.5,1.5,0,0,1,0-3H66.76a1.5,1.5,0,0,1,0,3Z"/><path class="cls-5" d="M15.16,70.81a1.5,1.5,0,0,1-.53-.1L1,65.54A1.5,1.5,0,1,1,2,62.73l13.66,5.18a1.5,1.5,0,0,1-.53,2.9Z"/><path class="cls-6" d="M10.12,63.51a1.5,1.5,0,0,1-1.4-2l5-13.15a1.5,1.5,0,1,1,2.8,1.06l-5,13.15A1.5,1.5,0,0,1,10.12,63.51Z"/><path class="cls-7" d="M18.07,50.88a9.83,9.83,0,0,1-3.5-.63c-3-1.13-5.32-3.76-6.61-7.4C5,34.58,7.67,22.47,15.17,9.64A1.5,1.5,0,0,1,17,9l23.13,8.77a1.5,1.5,0,0,1,.94,1.69C36.76,41.17,26.42,50.88,18.07,50.88Zm-.95-38.63C7.82,28.72,9.58,38.41,10.8,41.86a8.78,8.78,0,0,0,4.84,5.59,6.83,6.83,0,0,0,2.43.43c6.74,0,15.71-8.7,19.79-27.76Z"/><path class="cls-8" d="M32.83,26.43H10.3a1.5,1.5,0,0,1,0-3H32.83a1.5,1.5,0,0,1,0,3Z"/><circle class="cls-9" cx="62.01" cy="24.45" r="2.33"/><circle class="cls-10" cx="55.34" cy="32.45" r="2.33"/><circle class="cls-11" cx="51.34" cy="22.78" r="2.33"/><circle class="cls-12" cx="16.67" cy="38.12" r="2.33"/><circle class="cls-13" cx="26" cy="32.45" r="2.33"/></g></g></svg>