<svg xmlns="http://www.w3.org/2000/svg" xmlns:xlink="http://www.w3.org/1999/xlink" viewBox="0 0 91.35 69.71"><defs><style>.cls-1{fill:url(#linear-gradient);}.cls-2{fill:url(#linear-gradient-2);}.cls-3{fill:url(#linear-gradient-3);}.cls-4{fill:url(#linear-gradient-4);}.cls-5{fill:url(#linear-gradient-5);}.cls-6{fill:url(#linear-gradient-6);}.cls-7{fill:url(#linear-gradient-7);}.cls-8{fill:url(#linear-gradient-8);}.cls-9{fill:url(#linear-gradient-9);}</style><linearGradient id="linear-gradient" x1="-0.21" y1="63.94" x2="93.22" y2="63.94" gradientUnits="userSpaceOnUse"><stop offset="0" stop-color="#42d79f"/><stop offset="1" stop-color="#27c8ca"/></linearGradient><linearGradient id="linear-gradient-2" x1="-0.21" y1="40.74" x2="93.22" y2="40.74" xlink:href="#linear-gradient"/><linearGradient id="linear-gradient-3" x1="-0.21" y1="36.36" x2="93.22" y2="36.36" xlink:href="#linear-gradient"/><linearGradient id="linear-gradient-4" x1="-0.21" y1="48.85" x2="93.22" y2="48.85" xlink:href="#linear-gradient"/><linearGradient id="linear-gradient-5" x1="-0.21" y1="17.29" x2="93.22" y2="17.29" xlink:href="#linear-gradient"/><linearGradient id="linear-gradient-6" x1="-0.21" y1="8.19" x2="93.22" y2="8.19" xlink:href="#linear-gradient"/><linearGradient id="linear-gradient-7" x1="-0.21" y1="43.79" x2="93.22" y2="43.79" xlink:href="#linear-gradient"/><linearGradient id="linear-gradient-8" x1="-0.21" y1="43.79" x2="93.22" y2="43.79" xlink:href="#linear-gradient"/><linearGradient id="linear-gradient-9" x1="-0.21" y1="17.29" x2="93.22" y2="17.29" xlink:href="#linear-gradient"/></defs><title>Ресурс 6</title><g id="Слой_2" data-name="Слой 2"><g id="Layer_1" data-name="Layer 1"><path class="cls-1" d="M68.82,69.71h-46a5.77,5.77,0,0,1,0-11.54h46a5.77,5.77,0,1,1,0,11.54Zm-46-8.54a2.77,2.77,0,0,0,0,5.54h46a2.77,2.77,0,1,0,0-5.54Z"/><path class="cls-2" d="M67.66,61.17a1.5,1.5,0,0,1-1.5-1.5V43.79a20.49,20.49,0,1,0-41,0V59.67a1.5,1.5,0,1,1-3,0V43.79a23.49,23.49,0,1,1,47,0V59.67A1.5,1.5,0,0,1,67.66,61.17Z"/><path class="cls-3" d="M30.81,45.29a1.5,1.5,0,0,1-1.5-1.5A16.38,16.38,0,0,1,45.67,27.43a1.5,1.5,0,0,1,0,3A13.38,13.38,0,0,0,32.31,43.79,1.5,1.5,0,0,1,30.81,45.29Z"/><path class="cls-4" d="M45.67,61a1.5,1.5,0,0,1-1.5-1.5V43.79a1.5,1.5,0,0,1,.44-1.06l5.57-5.56a1.5,1.5,0,0,1,2.12,2.12l-5.13,5.13V59.47A1.5,1.5,0,0,1,45.67,61Z"/><path class="cls-5" d="M67.44,23.53A1.5,1.5,0,0,1,66.38,21l9.47-9.47A1.5,1.5,0,0,1,78,13.62L68.5,23.09A1.49,1.49,0,0,1,67.44,23.53Z"/><path class="cls-6" d="M45.67,16.39a1.5,1.5,0,0,1-1.5-1.5V1.5a1.5,1.5,0,1,1,3,0V14.89A1.5,1.5,0,0,1,45.67,16.39Z"/><path class="cls-7" d="M1.5,45.29a1.5,1.5,0,0,1,0-3H14.89a1.5,1.5,0,0,1,0,3Z"/><path class="cls-8" d="M76.46,45.29a1.5,1.5,0,0,1,0-3H89.85a1.5,1.5,0,0,1,0,3Z"/><path class="cls-9" d="M23.91,23.53a1.49,1.49,0,0,1-1.06-.44l-9.47-9.47A1.5,1.5,0,0,1,15.5,11.5L25,21a1.5,1.5,0,0,1-1.06,2.56Z"/></g></g></svg>