<svg xmlns="http://www.w3.org/2000/svg" xmlns:xlink="http://www.w3.org/1999/xlink" viewBox="0 0 68.88 66.47"><defs><style>.cls-1{fill:url(#linear-gradient);}.cls-2{fill:url(#linear-gradient-2);}.cls-3{fill:url(#linear-gradient-3);}.cls-4{fill:url(#linear-gradient-4);}.cls-5{fill:url(#linear-gradient-5);}</style><linearGradient id="linear-gradient" x1="-1.71" y1="25.72" x2="70.29" y2="25.72" gradientUnits="userSpaceOnUse"><stop offset="0" stop-color="#42d79f"/><stop offset="1" stop-color="#27c8ca"/></linearGradient><linearGradient id="linear-gradient-2" x1="-2.02" y1="40.75" x2="69.99" y2="40.75" xlink:href="#linear-gradient"/><linearGradient id="linear-gradient-3" x1="-3.78" y1="36.52" x2="71.03" y2="36.52" xlink:href="#linear-gradient"/><linearGradient id="linear-gradient-4" x1="-3.78" y1="36.52" x2="71.03" y2="36.52" xlink:href="#linear-gradient"/><linearGradient id="linear-gradient-5" x1="-3.78" y1="36.52" x2="71.03" y2="36.52" xlink:href="#linear-gradient"/></defs><title>Ресурс 5</title><g id="Слой_2" data-name="Слой 2"><g id="Layer_1" data-name="Layer 1"><path class="cls-1" d="M1.5,51.45A1.5,1.5,0,0,1,0,49.95V8A8,8,0,0,1,8,0h35.4a8,8,0,0,1,8,8v2.9a1.5,1.5,0,1,1-3,0V8a5,5,0,0,0-5-5H8A5,5,0,0,0,3,8V46.33l7.15-7.15a1.5,1.5,0,0,1,1.06-.44h1.9a1.5,1.5,0,0,1,0,3H11.83L2.56,51A1.5,1.5,0,0,1,1.5,51.45Z"/><path class="cls-2" d="M67.38,66.47A1.5,1.5,0,0,1,66.32,66L57,56.76H25.52a8,8,0,0,1-8-8V23a8,8,0,0,1,8-8h35.4a8,8,0,0,1,8,8V65a1.5,1.5,0,0,1-1.5,1.5ZM25.52,18a5,5,0,0,0-5,5V48.8a5,5,0,0,0,5,5H57.67a1.5,1.5,0,0,1,1.06.44l7.15,7.15V23a5,5,0,0,0-5-5Z"/><circle class="cls-3" cx="33.22" cy="36.52" r="2.33"/><circle class="cls-4" cx="43.22" cy="36.52" r="2.33"/><circle class="cls-5" cx="53.22" cy="36.52" r="2.33"/></g></g></svg>