<svg xmlns="http://www.w3.org/2000/svg" viewBox="0 0 191.57 109.29">
    <defs>
        <linearGradient id="linear-gradient" x1="49%" y1="100%" x2="51%" y2="0%">
            <stop offset="0%" stop-color="#26c8cb"/>
            <stop offset="100%" stop-color="#42d79f"/>
        </linearGradient>
        <style>
            .cls-1{fill:url(#linear-gradient)}
        </style>
    </defs>
    <title>
        vk_alt
    </title>
    <g id="Слой_2" data-name="Слой 2">
        <g id="Var1">
            <path id="vk_alt" class="cls-1" d="M93.73 108.83h11.45s3.46-.38 5.23-2.28c1.63-1.75 1.57-5 1.57-5s-.22-15.36 6.91-17.63 16.06 14.85 25.62 21.42c7.24 5 12.73 3.88 12.73 3.88l25.58-.36s13.38-.83 7-11.35c-.52-.86-3.7-7.78-19-22-16-14.89-13.89-12.48 5.43-38.24C188 21.55 192.74 12 191.27 7.88 189.87 4 181.21 5 181.21 5l-28.8.18a6.55 6.55 0 0 0-3.72.66 8 8 0 0 0-2.54 3.09 167.18 167.18 0 0 1-10.64 22.46c-12.83 21.78-18 22.93-20.05 21.58-4.88-3.15-3.66-12.66-3.66-19.42 0-21.11 3.2-29.91-6.23-32.19C102.43.6 100.13.11 92.12 0c-10.28-.1-19 0-23.9 2.45-3.28 1.62-5.81 5.2-4.22 5.41 1.9.25 6.21 1.16 8.5 4.27 3 4 2.85 13 2.85 13S77 50 71.34 53.1c-3.88 2.12-9.21-2.21-20.64-22A183.8 183.8 0 0 1 40.41 9.82 8.57 8.57 0 0 0 38 6.61a11.89 11.89 0 0 0-4.42-1.79L6.24 5S2.13 5.12.63 6.91C-.72 8.5.52 11.78.52 11.78s21.43 50.13 45.69 75.4c22.25 23.17 47.52 21.65 47.52 21.65z"/>
        </g>
    </g>
</svg>
