<svg xmlns="http://www.w3.org/2000/svg" viewBox="0 0 252.86 90.34">
    <defs>
        <style>
            .cls-1{fill:url(#linear-gradient)}.cls-2{fill:#fff}
        </style>
        <linearGradient id="linear-gradient" x1="33.13" y1="-.44" x2="33.13" y2="90.23" gradientUnits="userSpaceOnUse">
            <stop offset="0" stop-color="#42d79f"/>
            <stop offset="1" stop-color="#27c8ca"/>
        </linearGradient>
    </defs>
    <title>
        Ресурс 3
    </title>
    <g id="Слой_2" data-name="Слой 2">
        <g id="Layer_1" data-name="Layer 1">
            <path class="cls-1" d="M66.27 57.21a33.16 33.16 0 0 0-17.9-29.41l-.16-.15A31.21 31.21 0 0 1 35.59 2.47 2.46 2.46 0 0 0 33.13 0a2.46 2.46 0 0 0-2.46 2.46 31.21 31.21 0 0 1-12.62 25.19l-.16.15A33.12 33.12 0 0 0 32 90.31h2.28a33.17 33.17 0 0 0 31.99-33.1zm-4.92 0a28.1 28.1 0 0 1-7.67 19.3 22.14 22.14 0 0 0-5.44-24.59 17.82 17.82 0 0 0 .65-18.11 28.21 28.21 0 0 1 12.46 23.4zM15.86 68.15a17.21 17.21 0 0 1 5.36-12.48 17.87 17.87 0 0 0 8.05 4.14v.14l1.36 2.71L32 65.37a1.18 1.18 0 0 0 2.18 0l1.36-2.71 1.4-2.66v-.14A17.85 17.85 0 0 0 45 55.67a17.26 17.26 0 1 1-29.14 12.48zm4.28-25.82a13 13 0 1 1 13 13 13 13 0 0 1-13-13zm13-26.67A35.79 35.79 0 0 0 38 24.44a33.19 33.19 0 0 0-9.83 0 35.78 35.78 0 0 0 4.96-8.78zM4.92 57.21a28.21 28.21 0 0 1 12.46-23.4A17.82 17.82 0 0 0 18 51.92a22.14 22.14 0 0 0-5.44 24.59 28.1 28.1 0 0 1-7.64-19.3z"/>
            <path class="cls-2" d="M95.14 32.47L86.56 51.2a2.3 2.3 0 0 1-2.09 1.44 2.53 2.53 0 0 1-2.61-2.35 2.87 2.87 0 0 1 .26-1.11L84 45l-6-12.49A2.41 2.41 0 0 1 80.3 29a2.28 2.28 0 0 1 2.09 1.44l4.31 8.78 4-8.78A2.3 2.3 0 0 1 92.86 29a2.49 2.49 0 0 1 2.54 2.35 2.88 2.88 0 0 1-.26 1.12z"/>
            <path class="cls-2" d="M112.62 52.83c-4.47 0-7.6-3.23-8.29-7.37h-1.86V50a2.36 2.36 0 1 1-4.7 0V37.5a2.36 2.36 0 1 1 4.7 0v3.85h2a8.5 8.5 0 0 1 8.12-6.66c5 0 8.42 4.34 8.42 9.1s-3.33 9.04-8.39 9.04zm0-13.83c-2.58 0-3.72 2.54-3.72 4.8s1.17 4.73 3.72 4.73 3.72-2.48 3.72-4.73-1.14-4.8-3.72-4.8z"/>
            <path class="cls-2" d="M127.43 39.2h-3.29a1.9 1.9 0 0 1-2.06-2.05 2 2 0 0 1 2.06-2.06h11.29a2.06 2.06 0 1 1 0 4.11h-3.29V50a2.36 2.36 0 1 1-4.7 0z"/>
            <path class="cls-2" d="M153.12 52.64a2.37 2.37 0 0 1-2.34-2.64v-4.54h-6.07V50a2.36 2.36 0 1 1-4.7 0V37.5a2.36 2.36 0 1 1 4.7 0v3.85h6.07V37.5a2.36 2.36 0 1 1 4.7 0V50a2.37 2.37 0 0 1-2.36 2.64z"/>
            <path class="cls-2" d="M175.3 43.8c0 4.89-3.36 9-8.42 9s-8.42-4.14-8.42-9 3.46-9.1 8.42-9.1 8.42 4.3 8.42 9.1zm-12.14 0c0 2.25 1.18 4.73 3.72 4.73s3.72-2.53 3.72-4.73-1.14-4.8-3.72-4.8-3.72 2.54-3.72 4.8z"/>
            <path class="cls-2" d="M182.08 45.33c.33 2.32 2.25 3.39 4.44 3.39 2.41 0 4.08-1.89 5.32-1.89a2.08 2.08 0 0 1 1.92 2c0 2-4.18 4-7.67 4-5.29 0-8.81-3.85-8.81-9 0-4.76 3.46-9.1 8.42-9.1s8.45 4.63 8.45 8.55c0 1.4-.62 2.09-2.06 2.09zm7.37-3.13a3.72 3.72 0 0 0-3.75-3.59 3.78 3.78 0 0 0-3.7 3.59z"/>
            <path class="cls-2" d="M79.42 61.43A2.45 2.45 0 0 1 82 58.89h8.35a2.25 2.25 0 0 1 0 4.5h-6v16.38a2.45 2.45 0 1 1-4.89 0z"/>
            <path class="cls-2" d="M106.89 82.31a2.37 2.37 0 0 1-2.35-2.61v-4.57h-6.07v4.57a2.36 2.36 0 1 1-4.7 0V67.17a2.36 2.36 0 1 1 4.7 0V71h6.07v-3.83a2.36 2.36 0 1 1 4.7 0V79.7a2.37 2.37 0 0 1-2.35 2.61z"/>
            <path class="cls-2" d="M116.7 75c.33 2.32 2.25 3.39 4.44 3.39 2.41 0 4.08-1.89 5.32-1.89a2.09 2.09 0 0 1 1.92 2c0 2-4.18 4-7.67 4-5.28 0-8.81-3.85-8.81-9 0-4.76 3.46-9.1 8.42-9.1s8.45 4.63 8.45 8.55c0 1.4-.62 2.09-2.06 2.09zm.06-16.51a2.35 2.35 0 1 1-2.35 2.35 2.34 2.34 0 0 1 2.36-2.34zm7.31 13.38a3.72 3.72 0 0 0-3.75-3.59 3.78 3.78 0 0 0-3.72 3.59zm-.13-13.38a2.35 2.35 0 1 1-2.35 2.35 2.34 2.34 0 0 1 2.35-2.34z"/>
            <path class="cls-2" d="M137.44 82.51c-3.33 0-6.69-1.47-6.69-3.59a2.21 2.21 0 0 1 2-2.09c1.83 0 2.12 1.57 4.34 1.57 1.21 0 2.05-.52 2.05-1.57 0-3.26-4.21-.91-4.21-3.82 0-2.61 3.52-.95 3.52-3.39 0-.52-.33-1.14-1.43-1.14-1.53 0-2.87 1.37-3.75 1.37a2 2 0 0 1-1.93-2.09c0-2.32 3.75-3.39 6.07-3.39 3.72 0 5.42 2.25 5.42 4.54a4.06 4.06 0 0 1-2.12 3.75 4.61 4.61 0 0 1 3 4.4c.03 2.94-2.22 5.45-6.27 5.45z"/>
            <path class="cls-2" d="M162.78 87.07a2.37 2.37 0 0 1-2.35-2.61v-2.34h-10v2.35a2.36 2.36 0 1 1-4.7 0v-3.86A2.37 2.37 0 0 1 148 78h.26a38.91 38.91 0 0 0 1.17-10.64 2.3 2.3 0 0 1 2.35-2.61h8.35a2.37 2.37 0 0 1 2.35 2.61V78h.26a2.37 2.37 0 0 1 2.35 2.61v3.85a2.37 2.37 0 0 1-2.31 2.61zm-4.7-18.53h-4a42.79 42.79 0 0 1-1.21 9.72h5.22z"/>
            <path class="cls-2" d="M167.41 79.5V67.17a2.36 2.36 0 1 1 4.7 0V71h3.33c3.65 0 6.3 1.73 6.3 5.51 0 3.52-2.38 5.58-5.84 5.58h-6.13a2.37 2.37 0 0 1-2.36-2.59zm4.7-1.27h3.1a1.7 1.7 0 0 0 1.79-1.76c0-.88-.69-1.57-2-1.57h-2.9zM184 67.17a2.36 2.36 0 1 1 4.7 0V79.7a2.36 2.36 0 1 1-4.7 0z"/>
            <path class="cls-2" d="M192.29 79.5V67.17a2.36 2.36 0 1 1 4.7 0V78h4.76V67.17a2.36 2.36 0 1 1 4.7 0V78h4.76V67.17a2.36 2.36 0 1 1 4.7 0V79.5a2.37 2.37 0 0 1-2.35 2.61h-18.92a2.37 2.37 0 0 1-2.35-2.61z"/>
            <path class="cls-2" d="M219.39 67.17a2.36 2.36 0 1 1 4.7 0v4.31l5.15-5.91a3 3 0 0 1 2.12-1 2.09 2.09 0 0 1 2 2.12 2.74 2.74 0 0 1-.91 1.86L228.07 73l5.71 5.51a2.15 2.15 0 0 1 .59 1.57 2.2 2.2 0 0 1-2.22 2.22c-.85 0-1.54-.68-2.25-1.43l-5.74-6.1h-.06v4.93a2.36 2.36 0 1 1-4.7 0z"/>
            <path class="cls-2" d="M252.86 73.47c0 4.89-3.36 9-8.42 9s-8.42-4.14-8.42-9 3.46-9.1 8.42-9.1 8.42 4.34 8.42 9.1zm-12.14 0c0 2.25 1.18 4.73 3.72 4.73s3.72-2.48 3.72-4.73-1.14-4.8-3.72-4.8-3.72 2.55-3.72 4.8z"/>
        </g>
    </g>
</svg>
