<svg xmlns="http://www.w3.org/2000/svg" xmlns:xlink="http://www.w3.org/1999/xlink" viewBox="0 0 80.68 61.65">
    <defs>
        <style>
            .cls-1{fill:url(#linear-gradient)}.cls-2{fill:url(#linear-gradient-2)}.cls-3{fill:url(#linear-gradient-3)}.cls-4{fill:url(#linear-gradient-5)}.cls-5{fill:url(#linear-gradient-6)}.cls-6{fill:url(#linear-gradient-7)}.cls-7{fill:#fff}.cls-8{fill:url(#linear-gradient-8)}
        </style>
        <linearGradient id="linear-gradient" y1="46.57" x2="80.68" y2="46.57" gradientUnits="userSpaceOnUse">
            <stop offset="0" stop-color="#42d79f"/>
            <stop offset="1" stop-color="#27c8ca"/>
        </linearGradient>
        <linearGradient id="linear-gradient-2" x1="-.03" y1="21.97" x2="80.6" y2="21.97" xlink:href="#linear-gradient"/>
        <linearGradient id="linear-gradient-3" x1="-.03" y1="23.05" x2="80.6" y2="23.05" xlink:href="#linear-gradient"/>
        <linearGradient id="linear-gradient-5" x1="-.03" y1="23.05" x2="80.6" y2="23.05" xlink:href="#linear-gradient"/>
        <linearGradient id="linear-gradient-6" x1="-.03" y1="36.55" x2="80.6" y2="36.55" xlink:href="#linear-gradient"/>
        <linearGradient id="linear-gradient-7" x1="-.02" y1="21.07" x2="80.59" y2="21.07" xlink:href="#linear-gradient"/>
        <linearGradient id="linear-gradient-8" x1="-.19" y1="49.9" x2="80.78" y2="49.9" xlink:href="#linear-gradient"/>
    </defs>
    <title>
        Ресурс 2
    </title>
    <g id="Слой_2" data-name="Слой 2">
        <g id="Layer_1" data-name="Layer 1">
            <path class="cls-1" d="M71.24 52H9.45A9.46 9.46 0 0 1 0 42.6a1.5 1.5 0 0 1 1.5-1.5h77.68a1.5 1.5 0 0 1 1.5 1.5 9.46 9.46 0 0 1-9.44 9.4zM3.18 44.1A6.46 6.46 0 0 0 9.45 49h61.79a6.46 6.46 0 0 0 6.27-4.95z"/>
            <path class="cls-2" d="M71.3 43.94a1.5 1.5 0 0 1-1.5-1.5v-33A6.46 6.46 0 0 0 63.35 3h-46a6.46 6.46 0 0 0-6.45 6.45v33a1.5 1.5 0 0 1-3 0v-33A9.46 9.46 0 0 1 17.33 0h46a9.46 9.46 0 0 1 9.47 9.45v33a1.5 1.5 0 0 1-1.5 1.49z"/>
            <path class="cls-3" d="M22.48 31.46h-6.79a1.5 1.5 0 0 1 0-3H21V17.65h-5.31a1.5 1.5 0 0 1 0-3h6.78a1.5 1.5 0 0 1 1.5 1.5V30a1.5 1.5 0 0 1-1.49 1.46z"/>
            <path class="cls-3" d="M64.93 31.46h-6.78a1.5 1.5 0 0 1-1.5-1.5V16.15a1.5 1.5 0 0 1 1.5-1.5h6.78a1.5 1.5 0 0 1 0 3h-5.28v10.81h5.28a1.5 1.5 0 0 1 0 3z"/>
            <path class="cls-4" d="M40.33 35.76A12.71 12.71 0 0 1 28.9 17.52a12.78 12.78 0 0 1 11.45-7.18 12.71 12.71 0 0 1 11.43 18.24 12.78 12.78 0 0 1-11.45 7.18zm0-22.41a9.76 9.76 0 0 0-8.75 5.48 9.71 9.71 0 0 0 8.73 13.93 9.76 9.76 0 0 0 8.75-5.48 9.71 9.71 0 0 0-8.73-13.93z"/>
            <path class="cls-5" d="M32.17 41.46a1.5 1.5 0 0 1-1.35-2.15l3.3-6.82a1.5 1.5 0 0 1 2.7 1.31l-3.3 6.82a1.5 1.5 0 0 1-1.35.84z"/>
            <path class="cls-6" d="M34.27 26.67a1.5 1.5 0 0 1-1.42-1 7.93 7.93 0 0 1 4.88-10.1 1.5 1.5 0 0 1 1 2.83 4.93 4.93 0 0 0-3 6.28 1.5 1.5 0 0 1-1.42 2z"/>
            <path class="cls-7" d="M31.52 41.31a1.61 1.61 0 0 0-.71-.16 1.64 1.64 0 0 0-1.47.92l-7 14.25a1.63 1.63 0 0 0 .76 2.17 1.66 1.66 0 0 0 2.18-.76l7-14.25a1.63 1.63 0 0 0-.76-2.17z"/>
            <path class="cls-8" d="M32.83 38.61a4.59 4.59 0 0 0-2-.46 4.65 4.65 0 0 0-4.17 2.61L19.65 55a4.64 4.64 0 0 0 2.16 6.18 4.59 4.59 0 0 0 2 .46A4.65 4.65 0 0 0 28 59l7-14.25a4.64 4.64 0 0 0-2.17-6.14zm-.54 4.87l-7 14.25a1.66 1.66 0 0 1-2.18.76 1.63 1.63 0 0 1-.76-2.17l7-14.25a1.64 1.64 0 0 1 1.47-.92 1.61 1.61 0 0 1 .71.16 1.63 1.63 0 0 1 .75 2.17z"/>
        </g>
    </g>
</svg>
