<svg xmlns="http://www.w3.org/2000/svg" xmlns:xlink="http://www.w3.org/1999/xlink" viewBox="0 0 84.22 66.33">
    <defs>
        <style>
            .cls-1{fill:url(#linear-gradient)}.cls-2{fill:url(#linear-gradient-2)}.cls-3{fill:url(#linear-gradient-3)}.cls-4{fill:url(#linear-gradient-4)}.cls-5{fill:url(#linear-gradient-5)}.cls-6{fill:url(#linear-gradient-6)}.cls-7{fill:url(#linear-gradient-7)}.cls-8{fill:url(#linear-gradient-8)}.cls-9{fill:url(#linear-gradient-9)}.cls-10{fill:url(#linear-gradient-10)}
        </style>
        <linearGradient id="linear-gradient" x1="-.45" y1="42.62" x2="84.48" y2="42.62" gradientUnits="userSpaceOnUse">
            <stop offset="0" stop-color="#42d79f"/>
            <stop offset="1" stop-color="#27c8ca"/>
        </linearGradient>
        <linearGradient id="linear-gradient-2" x1="-.45" y1="48.14" x2="84.48" y2="48.14" xlink:href="#linear-gradient"/>
        <linearGradient id="linear-gradient-3" x1="-.45" y1="53.67" x2="84.48" y2="53.67" xlink:href="#linear-gradient"/>
        <linearGradient id="linear-gradient-4" x1="-.45" y1="59.2" x2="84.48" y2="59.2" xlink:href="#linear-gradient"/>
        <linearGradient id="linear-gradient-5" x1="-.44" y1="59.96" x2="84.48" y2="59.96" xlink:href="#linear-gradient"/>
        <linearGradient id="linear-gradient-6" x1="-.45" y1="54.43" x2="84.48" y2="54.43" xlink:href="#linear-gradient"/>
        <linearGradient id="linear-gradient-7" x1="-.45" y1="48.91" x2="84.48" y2="48.91" xlink:href="#linear-gradient"/>
        <linearGradient id="linear-gradient-8" x1="-.45" y1="19.65" x2="84.48" y2="19.65" xlink:href="#linear-gradient"/>
        <linearGradient id="linear-gradient-9" x1="-.45" y1="42.92" x2="84.48" y2="42.92" xlink:href="#linear-gradient"/>
        <linearGradient id="linear-gradient-10" x1="-.45" y1="28.28" x2="84.48" y2="28.28" xlink:href="#linear-gradient"/>
    </defs>
    <title>
        Ресурс 1
    </title>
    <g id="Слой_2" data-name="Слой 2">
        <g id="Layer_1" data-name="Layer 1">
            <path class="cls-1" d="M19.19 49.75a5.8 5.8 0 0 1-5.65-5.32 4.67 4.67 0 0 1 1.33-3.68l3.92-3.92a4.66 4.66 0 0 1 3.33-1.34 5.67 5.67 0 0 1 4 1.69 5.18 5.18 0 0 1 .35 7.3l-3.95 3.92a4.66 4.66 0 0 1-3.33 1.35zm2.93-11.26a1.68 1.68 0 0 0-1.21.47L17 42.88a1.71 1.71 0 0 0-.46 1.35 2.81 2.81 0 0 0 2.66 2.52 1.68 1.68 0 0 0 1.21-.47l3.92-3.92a2.21 2.21 0 0 0-.33-3.05 2.66 2.66 0 0 0-1.87-.82z"/>
            <path class="cls-2" d="M24.72 55.27A5.8 5.8 0 0 1 19.07 50a4.67 4.67 0 0 1 1.33-3.68l3.92-3.92a4.66 4.66 0 0 1 3.33-1.4 5.68 5.68 0 0 1 4 1.69A5.19 5.19 0 0 1 32 50l-4 3.93a4.66 4.66 0 0 1-3.28 1.34zM27.65 44a1.68 1.68 0 0 0-1.21.47l-3.92 3.93a1.71 1.71 0 0 0-.46 1.35 2.81 2.81 0 0 0 2.66 2.52 1.68 1.68 0 0 0 1.21-.47l3.92-3.92a2.21 2.21 0 0 0-.35-3.06 2.66 2.66 0 0 0-1.85-.82z"/>
            <path class="cls-3" d="M30.24 60.8a5.8 5.8 0 0 1-5.65-5.32 4.67 4.67 0 0 1 1.33-3.68l3.92-3.92a4.66 4.66 0 0 1 3.33-1.34 5.68 5.68 0 0 1 4 1.69 5.18 5.18 0 0 1 .35 7.3l-3.92 3.92a4.66 4.66 0 0 1-3.36 1.35zm2.93-11.26A1.68 1.68 0 0 0 32 50l-4 3.93a1.71 1.71 0 0 0-.46 1.35 2.81 2.81 0 0 0 2.66 2.52 1.68 1.68 0 0 0 1.21-.47l3.92-3.92a2.21 2.21 0 0 0-.33-3.05 2.66 2.66 0 0 0-1.82-.82z"/>
            <path class="cls-4" d="M35.77 66.33A5.81 5.81 0 0 1 30.12 61a4.66 4.66 0 0 1 1.33-3.68l3.92-3.92a4.66 4.66 0 0 1 3.33-1.35 5.67 5.67 0 0 1 4 1.7 5.18 5.18 0 0 1 .35 7.3L39.1 65a4.66 4.66 0 0 1-3.33 1.33zm2.93-11.26a1.68 1.68 0 0 0-1.21.47l-3.92 3.92a1.71 1.71 0 0 0-.46 1.35 2.81 2.81 0 0 0 2.66 2.52 1.68 1.68 0 0 0 1.23-.47l3.92-3.92a2.21 2.21 0 0 0-.35-3.05 2.66 2.66 0 0 0-1.87-.82z"/>
            <path class="cls-5" d="M48 66.11a4.63 4.63 0 0 1-3.32-1.35l-2.87-2.87A1.5 1.5 0 0 1 44 59.77l2.87 2.87a1.7 1.7 0 0 0 1.35.46 2.69 2.69 0 0 0 1.7-.81 2.21 2.21 0 0 0 .35-3.06l-2.87-2.87a1.5 1.5 0 0 1 2.12-2.12l2.87 2.87a5.19 5.19 0 0 1-.35 7.3 5.68 5.68 0 0 1-3.62 1.68z"/>
            <path class="cls-6" d="M53.55 60.58a4.62 4.62 0 0 1-3.32-1.35 1.5 1.5 0 1 1 2.12-2.12 1.72 1.72 0 0 0 1.35.46 2.69 2.69 0 0 0 1.7-.81 2.21 2.21 0 0 0 .35-3.06l-2.87-2.87A1.5 1.5 0 1 1 55 48.72l2.87 2.87a5.18 5.18 0 0 1-.35 7.3 5.67 5.67 0 0 1-3.62 1.68z"/>
            <path class="cls-7" d="M59.07 55.06a4.63 4.63 0 0 1-3.32-1.35 1.5 1.5 0 0 1 2.12-2.12 1.73 1.73 0 0 0 1.35.46 2.68 2.68 0 0 0 1.7-.81 2.21 2.21 0 0 0 .35-3.05l-2.87-2.87a1.5 1.5 0 0 1 2.12-2.12l2.87 2.87a5.18 5.18 0 0 1-.35 7.3A5.68 5.68 0 0 1 59.43 55z"/>
            <path class="cls-8" d="M64.15 39.31a1.5 1.5 0 0 1-1.06-.45L45.68 21.13a3.88 3.88 0 0 0-1.46-.28 4 4 0 0 0-3.57 2.25l-2.75 6a7 7 0 0 1-6.29 4 6.94 6.94 0 0 1-6.27-9.92l4.87-11.42A11.88 11.88 0 0 1 45.83 5.5l9.83 4.2L64.91.44A1.41 1.41 0 0 1 66 0a1.5 1.5 0 0 1 1.07.47L83.81 18.2a1.5 1.5 0 0 1 0 2.09l-18.6 18.58a1.5 1.5 0 0 1-1.06.44zM44.22 17.85a6.88 6.88 0 0 1 3 .67 1.51 1.51 0 0 1 .43.3l16.51 16.86L80.63 19.2 65.94 3.65l-8.88 8.88a1.51 1.51 0 0 1-1.65.32L44.65 8.26A8.89 8.89 0 0 0 33 12.95l-4.9 11.47a3.94 3.94 0 1 0 7.1 3.44l2.75-6a7 7 0 0 1 6.27-4.01z"/>
            <path class="cls-9" d="M64.6 49.53a4.63 4.63 0 0 1-3.32-1.35 1.5 1.5 0 0 1 2.12-2.12 1.7 1.7 0 0 0 1.35.46 2.68 2.68 0 0 0 1.7-.81 2.21 2.21 0 0 0 .35-3.06l-3.73-3.8a1.5 1.5 0 0 1 2.14-2.1l3.72 3.79a5.18 5.18 0 0 1-.36 7.29A5.68 5.68 0 0 1 65 49.52z"/>
            <path class="cls-10" d="M19.17 38.61a1.49 1.49 0 0 1-1.06-.44L.44 20.5a1.5 1.5 0 0 1 2.12-2.12l17.67 17.67a1.5 1.5 0 0 1-1.06 2.56z"/>
        </g>
    </g>
</svg>
